HIERARCHY
ROOT pelvis
{
	OFFSET 0.00 0.00 0.00
	CHANNELS 6 Xposition Yposition Zposition Xrotation Yrotation Zrotation
	JOINT lfemur
	{
		OFFSET 0.00000 4.16428 0.00000
		CHANNELS 3 Xrotation Yrotation Zrotation
		JOINT ltibia
		{
			OFFSET 0.00000 0.00000 -15.73635
			CHANNELS 3 Xrotation Yrotation Zrotation
			JOINT lfoot
			{
				OFFSET 0.00000 0.00000 -15.24505
				CHANNELS 3 Xrotation Yrotation Zrotation
				JOINT ltoes
				{
					OFFSET 4.29365 0.00000 0.00000
					CHANNELS 3 Xrotation Yrotation Zrotation
				}
			}
		}
	}
	JOINT rfemur
	{
		OFFSET 0.00000 -4.16428 0.00000
		CHANNELS 3 Xrotation Yrotation Zrotation
		JOINT rtibia
		{
			OFFSET 0.00000 0.00000 -15.73635
			CHANNELS 3 Xrotation Yrotation Zrotation
			JOINT rfoot
			{
				OFFSET 0.00000 0.00000 -15.24505
				CHANNELS 3 Xrotation Yrotation Zrotation
				JOINT rtoes
				{
					OFFSET 4.29365 0.00000 0.00000
					CHANNELS 3 Xrotation Yrotation Zrotation
				}
			}
		}
	}
	JOINT thorax
	{
		OFFSET -1.96850 0.00000 5.24637
		CHANNELS 6 Xposition Yposition Zposition Xrotation Yrotation Zrotation
		JOINT head
		{
			OFFSET 0.00000 0.00000 14.46851
			CHANNELS 6 Xposition Yposition Zposition Xrotation Yrotation Zrotation
		}
		JOINT lclavicle
		{
			OFFSET 0.00000 0.00000 12.15561
			CHANNELS 3 Xrotation Yrotation Zrotation
			JOINT lhumerus
			{
				OFFSET 0.00000 6.68892 -0.39076
				CHANNELS 3 Xrotation Yrotation Zrotation
				JOINT lradius
				{
					OFFSET 0.00000 0.00000 -8.96939
					CHANNELS 3 Xrotation Yrotation Zrotation
					JOINT lhand
					{
						OFFSET 0.00000 0.00000 -10.08301
						CHANNELS 3 Xrotation Yrotation Zrotation
					}
				}
			}
		}
		JOINT rclavicle
		{
			OFFSET 0.00000 0.00000 12.15561
			CHANNELS 3 Xrotation Yrotation Zrotation
			JOINT rhumerus
			{
				OFFSET 0.00000 -6.68892 -0.39076
				CHANNELS 3 Xrotation Yrotation Zrotation
				JOINT rradius
				{
					OFFSET 0.00000 0.00000 -8.96939
					CHANNELS 3 Xrotation Yrotation Zrotation
					JOINT rhand
					{
						OFFSET 0.00000 0.00000 -10.08301
						CHANNELS 3 Xrotation Yrotation Zrotation
					}
				}
			}
		}
	}
}
MOTION
Frames: 11
Frame Time: 0.008333
 38.6773 -54.8954 32.2861 1.6468 -1.6933 173.5623 -1.5171 0.5688 15.2730 -0.0000 23.6723 0.0000 0.0000 6.9231 11.2119 0.0000 -35.2050 -0.0000 9.4847 -6.5894 -8.1392 -0.0000 11.1809 0.0000 0.0000 6.4232 -6.3891 0.0000 -10.4005 -0.0000 40.8441 -55.2635 37.9935 1.3948 1.5962 0.1457 39.9157 -56.2859 52.2656 6.7786 -10.4603 -15.0650 -12.6903 0.0000 -15.1537 14.9752 -0.2340 19.7905 0.0000 -20.1264 -36.9874 36.0323 -2.9639 0.0000 14.9800 -0.0000 7.5287 -19.2754 0.7154 -15.6850 -0.0000 -26.9943 30.4355 -22.5908 -4.0485 -0.0000
 38.6430 -54.8832 32.2894 1.6171 -1.6927 173.5456 -1.4592 0.4700 15.3355 -0.0000 23.9739 0.0000 -0.0000 7.1351 11.1462 0.0000 -35.7486 -0.0000 9.4632 -6.4431 -8.2748 -0.0000 11.0189 0.0000 0.0000 6.3394 -6.2317 0.0000 -10.0628 -0.0000 40.8075 -55.2462 37.9996 1.3873 1.6110 0.1367 39.8766 -56.2534 52.2741 6.8132 -10.3917 -15.1867 -12.6992 0.0000 -15.0866 14.8874 -0.2367 19.1929 0.0000 -20.2592 -36.7908 36.7356 -3.1062 0.0000 15.0448 -0.0000 7.5740 -19.2149 0.6867 -15.7570 -0.0000 -27.4953 30.6578 -22.2967 -4.1068 -0.0000
 38.6095 -54.8715 32.2932 1.5864 -1.7013 173.5204 -1.3866 0.3601 15.4890 -0.0000 24.2887 0.0000 -0.0000 7.3466 10.9682 0.0000 -36.1201 -0.0000 9.4444 -6.3012 -8.3953 -0.0000 10.8471 0.0000 0.0000 6.3160 -6.0628 0.0000 -9.9384 -0.0000 40.7704 -55.2251 38.0043 1.4070 1.6243 0.1481 39.8398 -56.2283 52.2813 6.8063 -10.3894 -15.2594 -12.7126 -0.0000 -15.0164 14.8037 -0.2572 18.7335 0.0000 -20.3989 -36.6986 36.5849 -3.1269 0.0000 14.9755 -0.0000 7.5085 -19.1219 0.5671 -14.8683 -0.0000 -27.8509 29.3133 -22.8714 -3.8891 -0.0000
 38.5774 -54.8501 32.2963 1.5725 -1.7192 173.5060 -1.2773 0.2375 15.6174 -0.0000 24.6131 0.0000 0.0000 7.5426 10.8275 0.0000 -36.4975 -0.0000 9.4897 -6.1261 -8.3216 -0.0000 10.5969 0.0000 -0.0000 6.3214 -6.1106 0.0000 -9.9070 0.0000 40.7304 -55.2034 38.0086 1.4244 1.6102 0.1866 39.8024 -56.2029 52.2875 6.8288 -10.3316 -15.4193 -12.7121 0.0000 -14.9023 14.7182 -0.2888 18.0870 0.0000 -20.5536 -36.5482 36.3453 -3.2132 0.0000 14.9725 -0.0000 7.4369 -19.0812 0.4404 -14.5064 -0.0000 -28.1084 29.0501 -22.6629 -4.0343 -0.0000
 38.5463 -54.8359 32.2996 1.5612 -1.7390 173.4967 -1.1551 0.1123 15.8447 -0.0000 24.9477 0.0000 -0.0000 7.7617 10.5345 0.0000 -36.8422 -0.0000 9.5152 -5.9618 -8.2768 -0.0000 10.3470 0.0000 0.0000 6.3611 -6.1140 -0.0000 -9.8367 -0.0000 40.6916 -55.1795 38.0142 1.4327 1.5902 0.1685 39.7631 -56.1734 52.2948 6.8776 -10.2920 -15.4485 -12.7008 0.0000 -14.8293 14.6222 -0.2997 17.6755 0.0000 -20.6619 -36.5629 36.3506 -3.2892 0.0000 14.9786 -0.0000 7.4198 -18.9948 0.3324 -14.2602 -0.0000 -28.3671 28.7748 -23.1230 -3.9774 -0.0000
 38.5145 -54.8216 32.3026 1.5476 -1.7718 173.4694 -1.0678 0.0097 15.8916 -0.0000 25.2285 0.0000 0.0000 7.8772 10.3879 0.0000 -37.0328 -0.0000 9.5466 -5.8129 -8.2296 -0.0000 10.1087 0.0000 0.0000 6.3848 -6.1323 0.0000 -9.8004 -0.0000 40.6562 -55.1644 38.0188 1.4471 1.5684 0.1974 39.7271 -56.1432 52.3034 6.8599 -10.2355 -15.5988 -12.6870 0.0000 -14.7916 14.4877 -0.3157 17.2860 0.0000 -20.7926 -36.6020 36.2133 -3.3031 0.0000 15.0050 -0.0000 7.4267 -19.0125 0.2999 -13.8831 0.0000 -28.6843 28.3998 -22.8754 -4.0012 -0.0000
 38.4856 -54.8078 32.3061 1.5413 -1.8020 173.5118 -0.9480 -0.1208 16.0214 -0.0000 25.5410 0.0000 0.0000 8.0490 10.1189 0.0000 -37.2959 -0.0000 9.5722 -5.6679 -8.2361 -0.0000 9.8653 0.0000 0.0000 6.4451 -6.1331 0.0000 -9.7325 -0.0000 40.6178 -55.1386 38.0237 1.4472 1.5294 0.1975 39.6963 -56.1321 52.3121 6.9419 -10.1546 -15.7078 -12.6454 0.0000 -14.7509 14.3913 -0.3225 16.8013 0.0000 -20.9070 -36.5974 35.8518 -3.4556 0.0000 15.0303 -0.0000 7.4109 -18.9597 0.2436 -13.7855 -0.0000 -28.8975 28.3825 -22.9746 -4.1653 -0.0000
 38.4543 -54.7958 32.3087 1.5244 -1.8365 173.5011 -0.8515 -0.2298 16.2202 -0.0000 25.8113 0.0000 0.0000 8.1876 9.9429 0.0000 -37.5590 -0.0000 9.5893 -5.5361 -8.2064 -0.0000 9.6587 0.0000 0.0000 6.4539 -6.1340 0.0000 -9.7538 -0.0000 40.5810 -55.1153 38.0280 1.4588 1.5013 0.2067 39.6582 -56.0979 52.3186 6.9032 -10.1298 -15.8298 -12.6376 0.0000 -14.6793 14.3078 -0.3409 16.3720 0.0000 -21.0240 -36.6346 35.5823 -3.5507 0.0000 15.0254 -0.0000 7.3757 -18.9477 0.1522 -13.4043 -0.0000 -29.0868 28.1567 -23.0945 -4.0300 -0.0000
 38.4229 -54.7830 32.3110 1.5012 -1.8654 173.4916 -0.7560 -0.3214 16.4272 -0.0000 26.0588 0.0000 0.0000 8.3411 9.7061 0.0000 -37.9186 -0.0000 9.5775 -5.4262 -8.1924 -0.0000 9.5039 0.0000 0.0000 6.4374 -6.0055 0.0000 -9.5772 0.0000 40.5430 -55.0956 38.0318 1.4705 1.4652 0.2320 39.6213 -56.0651 52.3249 6.8911 -10.1082 -15.8707 -12.6278 0.0000 -14.6208 14.2040 -0.3532 15.9254 0.0000 -21.1352 -36.6355 35.5457 -3.5178 0.0000 15.0238 -0.0000 7.3659 -18.9273 0.1027 -13.2341 -0.0000 -29.2668 28.1054 -22.6218 -4.0592 -0.0000
 38.3948 -54.7743 32.3149 1.4731 -1.8898 173.5290 -0.6512 -0.4401 16.6265 -0.0000 26.3555 0.0000 0.0000 8.5101 9.3536 0.0000 -38.0402 -0.0000 9.5722 -5.3131 -8.1688 -0.0000 9.3249 0.0000 0.0000 6.4734 -6.0493 0.0000 -9.5673 -0.0000 40.5089 -55.0734 38.0372 1.4616 1.4500 0.2113 39.5887 -56.0442 52.3296 6.8692 -10.0761 -16.0133 -12.6251 0.0000 -14.5535 14.1469 -0.3790 15.4589 0.0000 -21.2452 -36.6780 35.2992 -3.6318 0.0000 15.0386 -0.0000 7.3728 -18.8663 0.0347 -13.1664 0.0000 -29.4015 28.0861 -23.0760 -3.9879 -0.0000
 38.3642 -54.7609 32.3169 1.4546 -1.9195 173.5461 -0.5712 -0.5314 16.6728 -0.0000 26.5904 0.0000 0.0000 8.6668 9.2477 0.0000 -38.4391 -0.0000 9.5877 -5.2120 -8.1592 -0.0000 9.1817 0.0000 0.0000 6.4636 -6.0533 0.0000 -9.5054 -0.0000 40.4711 -55.0508 38.0406 1.4694 1.4164 0.2175 39.5540 -56.0283 52.3329 6.9683 -10.0497 -16.0146 -12.6094 0.0000 -14.4426 14.0764 -0.4116 14.9054 0.0000 -21.3656 -36.6018 35.0409 -3.6842 0.0000 15.0250 -0.0000 7.3468 -18.8646 -0.0276 -12.8942 0.0000 -29.4867 27.9571 -22.3969 -4.1477 -0.0000
